<?xml version="1.0" encoding="utf-8"?>
<!-- Generator: Adobe Illustrator 24.3.0, SVG Export Plug-In . SVG Version: 6.00 Build 0)  -->
<svg version="1.1" id="Capa_1" xmlns="http://www.w3.org/2000/svg" xmlns:xlink="http://www.w3.org/1999/xlink" x="0px" y="0px"
	 viewBox="0 0 595.3 597.6" style="enable-background:new 0 0 595.3 597.6;" xml:space="preserve">
<style type="text/css">
	.st0{fill:#97E895;}
	.st1{fill:#33333B;}
	.st2{fill:#F7EDE6;}
	.st3{fill:#F3B281;}
	.st4{fill:#602F0F;}
	.st5{fill:#E1A279;}
	.st6{fill:#F7ECE5;}
	.st7{fill:#D33F3E;}
	.st8{fill:#E14645;}
</style>
<g>
	<path class="st0" d="M97.8,597.6c-31.1,0-62.2-0.1-93.3,0.1c-3.9,0-4.8-0.7-4.8-4.8c0.1-153,0.1-306,0.1-459c0-43,0-85.9-0.1-128.9
		c0-3.6,0.1-5,4.5-5c196.2,0.2,392.4,0.1,588.5,0.1c3.4,0,4.6,0.5,4.6,4.4c-0.1,196.4-0.1,392.7,0,589.1c0,3.6-0.8,4.2-4.2,4.1
		c-30.1-0.2-60.3-0.1-90.4-0.1c-3.5-15.1-7.1-30.2-10.6-45.3c-2.3-9.8-5.2-19.5-6.7-29.5c-2.8-19.4-5.6-38.7-9.9-57.9
		c-1.6-7.2-4.9-13.4-10.3-18.5c-19.9-19.3-45-27.4-71.2-33.2c-7.1-1.4-14.1-3-21.3-4.2c-9.8-1.7-19.5-3.7-29.5-3.6
		c-3.5-9.5-5.6-19.1-5.4-29.4c0.2-8.8,2.4-17.2,3.4-25.8c6.5-7.7,14.2-14.3,20.2-22.5c9-12.6,16-26.1,20.8-40.8
		c0.9-2.8,1.3-6.3,5.4-6.7c5.4-0.5,8.1-4.4,9.8-8.9c5.4-14.1,7.9-28.8,7-43.9c-0.3-5.4-2.9-9.6-8.3-11.6c0.2-2.6,2.3-3.4,4.3-4.2
		c2.7-1.1,3.5-3,3.4-5.9c-0.5-24.5-3-48.6-11.6-71.8c-10.7-28.4-29.9-47.6-59.9-55c-18.6-4.6-37.3-5.2-56.4-2.3
		c-35.3,5.3-59,24.4-71.4,57.9c-7.9,21.5-10.5,43.8-11.4,66.5c-0.2,5.1-0.9,10.2,5.9,11.9c1.3,0.3,1.3,1.8,1.7,2.9
		c-6,2.7-8.2,7.5-8.5,13.8c-0.4,7.1,1,14.1,1.1,21.2c-6.6,6.5-9.8,15.1-13.4,23.3c-9.3,21.5-13.7,43.7-9.2,67.2
		c3.9,20,12.4,37.9,23.1,55c3.6,5.8,9,10.7,10,17.9c-0.3,0.1-0.6,0.2-0.9,0.3c-1.8-2.2-3.9-0.9-5.9-0.5
		c-13.2,3.3-26.1,7.6-38.3,13.5c-7,3.4-13.7,7.3-20,11.8c-12.8,9.2-17.4,22.5-20.1,37.3c-5,27.5-8.1,55.2-13.9,82.5
		C102.1,572,98.7,584.6,97.8,597.6z"/>
	<path class="st1" d="M203,414.6c0.3-0.1,0.6-0.2,0.9-0.3c11.4,15.3,19.3,32.1,21.3,51.3c1.7,16.6-2.6,31-15.3,42.4
		c-0.8,0.8-2.7,0.9-2,3.5c16.9-5.2,32.7-12,44.7-25.5c7.3-8.2,10.9-18.1,13.2-28.7c1.6,5.9,3.2,11.9,4.9,17.8
		c0.1,0.4,0.1,0.8,0.2,1.2c0.1,0.3,0.3,0.6,0.4,0.8c8.8,35.5,17.6,70.9,26.5,106.4c0.6,0,1.1,0,1.7-0.1
		c8.9-36.1,17.9-72.3,26.8-108.4c5.7-23.2,11.4-46.5,17.1-69.7c10-0.1,19.7,1.9,29.5,3.6c7.1,1.2,14.2,2.8,21.3,4.2
		c2.3,11.8,4.6,23.6,7,35.4c7.5,36.7,13.8,73.6,22.2,110c3,13,7.2,25.7,9.3,39c-91,0-182,0-273.1,0c9.8-33.2,20-66.3,26.2-100.5
		C190.9,469.4,197.3,442.1,203,414.6z"/>
	<path class="st2" d="M432.7,597.6c-2-13.2-6.3-26-9.3-39c-8.5-36.5-14.7-73.4-22.2-110c-2.4-11.8-4.7-23.6-7-35.4
		c26.2,5.8,51.3,13.9,71.2,33.2c5.3,5.2,8.7,11.4,10.3,18.5c4.3,19.1,7.1,38.5,9.9,57.9c1.4,9.9,4.4,19.7,6.7,29.5
		c3.5,15.1,7,30.2,10.6,45.3C479.4,597.6,456.1,597.6,432.7,597.6z"/>
	<path class="st2" d="M203,414.6c-5.8,27.5-12.1,54.9-17.2,82.5c-6.2,34.2-16.4,67.3-26.2,100.5c-20.6,0-41.2,0-61.8,0
		c0.9-13,4.3-25.6,7-38.3c5.9-27.3,8.9-55.1,13.9-82.5c2.7-14.8,7.2-28.1,20.1-37.3c6.3-4.5,13-8.5,20-11.8
		c12.3-5.9,25.1-10.3,38.3-13.5C199.1,413.6,201.2,412.4,203,414.6z"/>
	<path class="st3" d="M193.4,250.8c-0.1-7.1-1.5-14.1-1.1-21.2c0.3-6.3,2.5-11.1,8.5-13.8c2.9,1.6,4.3,4.4,5.6,7.2
		c0.5,1.1,1,2.4,2.3,2.2c1.7-0.3,1.6-2,1.5-3.3c-0.1-3.7-0.2-7.4-0.5-11.1c-0.3-3.7,1.1-5.4,4.7-6.7c10.1-3.5,20.2-7,29.9-11.5
		c21.6-10,43.6-19.9,54.3-44.6c5.3,15.5,17.1,24.3,29.7,32.2c17,10.5,35.4,17.6,54.2,23.9c3.6,1.2,5.1,2.9,4.7,6.6
		c-0.3,3.5-0.4,7-0.5,10.5c0,1.5-0.5,3.5,1.5,3.9c1.6,0.3,1.9-1.5,2.5-2.7c1.3-2.6,2.7-5.2,5.4-6.7c5.4,2,8,6.1,8.3,11.6
		c0.9,15.1-1.5,29.8-7,43.9c-1.7,4.5-4.4,8.3-9.8,8.9c-4.1,0.4-4.5,3.9-5.4,6.7c-4.8,14.7-11.8,28.3-20.8,40.8
		c-5.9,8.2-13.6,14.8-20.2,22.5c-5,3.3-9.8,6.9-15.1,9.7c-9.4,5.1-19.3,9.4-30.2,8.5c-10.1-0.8-19.4-4.8-28.2-10
		c-4.1-2.4-7.4-6.4-12.4-7.2c-0.6-1.9-1.7-3.5-3.5-4.5c-7.6-6.9-14.4-14.6-20.2-23.1c-8.2-11.9-13.8-25.1-18.5-38.6
		c-0.7-2.1-1.1-4.5-4.3-4.6c-5.5-0.2-8-4.1-10-8.5C196,265.2,194.8,258,193.4,250.8z M272.9,321.1c-2,2.1,0,3,1.3,4
		c14.4,11.4,33.9,11.5,48.5,0.1c1.6-1.3,3.4-2.4,0.7-4.3c-6.7-9.9-10.5-11.4-21.8-8.4c-2.1,0.6-4.1,0.5-6.3,0
		C284.3,309.5,279.9,311.2,272.9,321.1z"/>
	<path class="st4" d="M396.3,215.8c-2.7,1.5-4.1,4.1-5.4,6.7c-0.6,1.2-1,3-2.5,2.7c-2-0.4-1.5-2.4-1.5-3.9c0.1-3.5,0.1-7,0.5-10.5
		c0.4-3.7-1.1-5.4-4.7-6.6c-18.8-6.3-37.3-13.5-54.2-23.9c-12.7-7.8-24.4-16.6-29.7-32.2c-10.7,24.7-32.7,34.5-54.3,44.6
		c-9.7,4.5-19.8,8-29.9,11.5c-3.6,1.3-5,3-4.7,6.7c0.3,3.7,0.4,7.4,0.5,11.1c0,1.3,0.2,3-1.5,3.3c-1.3,0.2-1.8-1.1-2.3-2.2
		c-1.3-2.8-2.7-5.6-5.6-7.2c-0.4-1.1-0.4-2.6-1.7-2.9c-6.8-1.6-6.1-6.7-5.9-11.9c0.8-22.7,3.4-45,11.4-66.5
		C217,101,240.7,81.9,276,76.6c19-2.9,37.8-2.2,56.4,2.3c30,7.4,49.3,26.5,59.9,55c8.7,23.1,11.2,47.3,11.6,71.8
		c0.1,2.9-0.7,4.8-3.4,5.9C398.5,212.3,396.5,213.2,396.3,215.8z"/>
	<path class="st4" d="M193.4,250.8c1.4,7.2,2.6,14.5,5.7,21.2c2,4.4,4.5,8.3,10,8.5c3.2,0.1,3.5,2.5,4.3,4.6
		c4.8,13.5,10.3,26.7,18.5,38.6c5.8,8.5,12.6,16.2,20.2,23.1c-0.7,4.6-1.8,9.1-2.2,13.7c-1.1,14.4-1.3,28.8,3.7,42.7
		c0.5,4.7,2.1,9,3.8,13.4c5.1,13.1,8.7,26.5,8.5,40.7c-2.3,10.5-5.9,20.5-13.2,28.7c-12,13.6-27.8,20.3-44.7,25.5
		c-0.7-2.6,1.1-2.7,2-3.5c12.7-11.4,17-25.9,15.3-42.4c-2-19.2-9.9-36-21.3-51.3c-1-7.3-6.4-12.2-10-17.9
		c-10.7-17.1-19.3-35-23.1-55c-4.6-23.5-0.2-45.8,9.2-67.2C183.5,265.9,186.8,257.3,193.4,250.8z"/>
	<path class="st5" d="M265.9,457.3c0.2-14.2-3.4-27.6-8.5-40.7c-1.7-4.3-3.3-8.7-3.8-13.4c1-2.5,2.1-5,2.9-7.6
		c4.4-14.9,1.9-29.6-0.9-44.3c5,0.8,8.3,4.8,12.4,7.2c8.8,5.1,18.1,9.1,28.2,10c10.9,0.9,20.9-3.4,30.2-8.5
		c5.2-2.9,10.1-6.4,15.1-9.7c-1,8.6-3.2,17-3.4,25.8c-0.2,10.3,1.9,19.9,5.4,29.4c-5.7,23.2-11.4,46.5-17.1,69.7
		c-18.5,0-37,0-55.5,0C269.2,469.2,267.6,463.2,265.9,457.3z"/>
	<path class="st6" d="M270.8,475.1c18.5,0,37,0,55.5,0c-8.9,36.1-17.9,72.3-26.8,108.4c-0.6,0-1.1,0-1.7,0.1
		c-8.8-35.5-17.6-70.9-26.5-106.4c0.2-0.4,0.1-0.7-0.4-0.8C270.9,475.9,270.8,475.5,270.8,475.1z"/>
	<path class="st5" d="M270.9,476.3c0.5,0.1,0.6,0.4,0.4,0.8C271.2,476.9,271.1,476.6,270.9,476.3z"/>
	<path class="st7" d="M323.4,320.9c2.7,1.9,1,3.1-0.7,4.3c-14.5,11.4-34,11.3-48.5-0.1c-1.3-1-3.3-1.9-1.3-4
		C289.7,317.9,306.5,318.3,323.4,320.9z"/>
	<path class="st0" d="M255.6,351.3c2.8,14.7,5.4,29.5,0.9,44.3c-0.8,2.6-1.9,5.1-2.9,7.6c-5-13.9-4.8-28.3-3.7-42.7
		c0.4-4.6,1.4-9.1,2.2-13.7C253.9,347.8,255,349.4,255.6,351.3z"/>
	<path class="st8" d="M323.4,320.9c-16.8-2.6-33.6-2.9-50.5,0.2c7-9.8,11.4-11.6,22.4-8.6c2.1,0.6,4.1,0.6,6.3,0
		C312.9,309.5,316.7,311,323.4,320.9z"/>
</g>
</svg>
