<?xml version="1.0" encoding="utf-8"?>
<!-- Generator: Adobe Illustrator 24.3.0, SVG Export Plug-In . SVG Version: 6.00 Build 0)  -->
<svg version="1.1" id="Capa_1" xmlns="http://www.w3.org/2000/svg" xmlns:xlink="http://www.w3.org/1999/xlink" x="0px" y="0px"
	 viewBox="0 0 595.3 601.4" style="enable-background:new 0 0 595.3 601.4;" xml:space="preserve">
<style type="text/css">
	.st0{fill:#97E895;}
	.st1{fill:#E5E8ED;}
	.st2{fill:#FE7059;}
	.st3{fill:#F3B281;}
	.st4{fill:#334A5E;}
	.st5{fill:#E1A279;}
	.st6{fill:#FDFDFD;}
	.st7{fill:#9C9FBA;}
	.st8{fill:#F05641;}
	.st9{fill:#F78470;}
</style>
<g>
	<path class="st0" d="M0.8,557.3c0-184.3,0-368.7-0.1-553C0.7,0.8,1.5,0,5,0c195.1,0.1,390.2,0.1,585.3,0c3.5,0,4.3,0.8,4.3,4.3
		c-0.1,191.8-0.1,383.7-0.1,575.5c-2.3-0.4-2.2-2.4-2.7-3.9c-3.3-8.8-6.7-17.5-10.8-25.9c-20.7-42.1-49-77.8-87.5-105.1
		c-13.1-9.3-26.6-17.8-40.4-26.1c-1-1.9-2.8-2.6-4.8-2.9l0.1,0c-3.1-2.3-6.3-4.3-10.3-4.7l0,0c-0.8-0.3-1.6-0.6-2.4-0.9l-0.3,0.1
		c-0.9-1.5-2.2-2-3.9-1.9l0,0c-0.6-0.3-1.3-0.6-1.9-1l0.1,0c-0.8-0.9-1.8-1-2.9-1l0.1,0c-0.6-0.3-1.3-0.6-1.9-1l0,0
		c-0.8-0.9-1.8-1-2.9-1l0.1,0c-8.5-4.7-17.5-8.2-27.2-9.4l0.1,0c-2.8-2.6-6.4-2.2-9.8-2.8c0,0-0.4,0-0.4,0c-2.8-1.8-5-3.9-5.1-7.6
		c0-1.2-1.1-2.5-1.7-3.7l0,0.1c0.1-2.7-0.3-5.1-2.9-6.6l0.1,0.1c-0.4-0.6-0.7-1.3-1.1-1.9c-3.4-4.2-6.4-8.8-11.7-11.1
		c-1.2-7.9-1.1-16.2-4.8-23.6c-1-3.4-2.1-6.8-3.1-10.3c7.7-8.9,14.9-18.2,20.6-28.5c1.8-3.2,3.4-6.7,8.7-6.7c3.3,0,7.1-1.5,10.3-3.7
		c14-9.5,22.6-22.6,26.6-38.9c2.2-4,2-12-0.3-14.8c-1-6.6-5.2-10.4-11.2-12.4c0-0.6-0.2-1.3,0-1.9c3.7-12.2,6.1-24.7,7.2-37.4
		c0.2-2.1-0.5-4.6,1.2-6.6c2.6,2.1,0.8,5.8,3.5,7.6c0-7.2,1.2-14.2,0.4-21.4c-2.3-22.1-11.5-40.6-26.6-56.5
		c-10.1-10.6-21.7-19-34.7-25.7c-1-0.5-2.9-0.8-2.4-2.4c0.6-1.7,2.4-0.8,3.6-0.5c3,0.6,5.7,2.6,8.9,2.6c0.3,0.4,0.6,0.8,1,0.2
		c0,0-0.4-0.4-0.6-0.6c-7.1-7.2-15.3-12.6-24.8-15.9c-18.4-6.3-36.9-5.4-55.5-0.7c-3.1,0.8-6.2,2.7-9.9,0.9
		c8.4-7.1,18.2-10.2,28.3-12.8c-4.9,0.2-9.4-1.3-14.1-1.4c-12.3-0.3-24.6,0.4-36.5,3.8c-19.3,5.4-35.2,15.4-44.1,34.2
		c-0.5,1-0.8,2.2-2.1,2.1c-1.3,0-1.6-1.3-2-2.3c-1.5-3.7-1.3-7.7-2.1-12.7c-2.4,7.2-1.5,13.3-0.6,19.4c0.2,1.3,1.1,3-0.3,3.9
		c-1.5,1-2.4-0.7-3.4-1.6c-4.7-4.1-10.3-5.4-16.4-5.2c5,1.9,9.4,4.7,13,8.7c3.6,4.1,3.5,5.1-1.3,7.3c-12.9,5.9-22.8,14.9-28.8,28
		c-4.8,10.5-6.4,21.5-5.2,33.4c2.9-1.2,3.7-3.8,5.5-5.4c0.9-0.8,1.4-2.4,2.9-1.7c1.4,0.7,0.6,2.2,0.7,3.3c0.1,0.8,0,1.6-0.1,2.3
		c-2.4,16.8-1.1,33.3,4.7,49.4c0.5,1.5,1.8,3.1,0.2,4.7c-9,1-14.3,7-14.9,16.6c-1,15.2,5.2,27.8,14.3,39.2c6.4,8,14.3,13.8,24.7,15
		c2.9,0.4,4.3,1.5,5.7,3.8c6.5,10.9,13.5,21.5,22,31c-1.2,3.4-3.1,6.6-3.1,10.3c-0.9,2.3-1.8,4.5-2.8,6.8c-2.5,5-1.9,10.5-1.9,15.8
		c0,0.4-0.1,0.7-0.1,1.1c-3.8,1.3-6.1,4.6-8.9,7.2c-0.4,0.3-0.9,0.6-1.3,1c0,0,0.1,0,0.1,0c-0.3,0.6-0.6,1.3-1,1.9c0,0,0-0.1,0-0.1
		c-0.3,0.5-0.7,1-1,1.5l0.1,0.3c-0.3,0.4-0.7,0.7-1,1.1l0,0c-0.9,0.8-1,1.8-1,2.9l0-0.1c-0.3,0.7-0.7,1.3-1,2c0,0,0-0.1,0-0.1
		c-1.3,1.4-1.8,3.3-2,5.1c-0.3,4.3-2.2,7.1-6.5,8.1l0.1,0c-0.7,0.3-1.4,0.7-2.1,1c0,0-0.4,0-0.4,0c-2.4,0.1-5.2-0.9-6.9,1.9l0,0
		c-7.1,0.8-13.6,3.2-19.7,6.6l0.1,0c-4.6,0.2-8.6,2-12.2,4.7l0.1,0c-0.6,0.4-1.3,0.8-1.9,1.1c-0.7,0.4-1.3,0.9-2,1.2
		c-34.7,14.3-65.2,35.1-91.9,61.3c-24.7,24.1-44,52-58.6,83.2C3,554.9,3,557,0.8,557.3z"/>
	<path class="st1" d="M435.4,410.4c0,0,0.3-0.1,0.3-0.1c0.6,0.7,1.4,1,2.4,0.9c0,0,0,0,0,0c3.1,2.4,6.3,4.4,10.3,4.7
		c0,0-0.1,0-0.1,0c0.9,2.1,2.9,2.4,4.8,2.9c13.7,8.3,27.3,16.8,40.4,26.1c38.6,27.3,66.9,63,87.5,105.1c4.1,8.4,7.5,17.1,10.8,25.9
		c0.6,1.5,0.5,3.6,2.7,3.9c0,6.1-0.2,12.2,0.1,18.3c0.1,2.8-0.6,3.4-3.4,3.4c-51.8-0.1-103.6-0.1-155.5-0.1c-32.9,0-65.9,0-98.8,0
		c-0.1-1.7-0.1-3.4-0.4-5.1c-6.3-30.5-9.3-61.6-13.5-92.4c-2-14.3-4-28.7-5.9-43c4.7-9.3,9.3-18.6,14-27.9
		c13.9,6.3,25.8,14.9,33.9,28.2c0.8,1.3,1,3.1,2.9,3.5c0,0,0.1,0.2,0.1,0.2l-0.2-0.2c0.2-0.9,0.2-1.9,0.6-2.7
		c6.4-14.8,9.5-30.4,11.8-46.3c1.1-7.7,0.5-15.5,0.8-23.2c1.3,0,2.5,0.1,3.8,0.1c0,0,0.4,0,0.4,0c2.9,2.1,6.3,2.7,9.8,2.8
		c0,0-0.1,0-0.1,0c8.8,3.9,18,6.7,27.2,9.4c0,0-0.1,0-0.1,0c0.8,0.9,1.8,1.1,2.9,1c0,0,0,0,0,0c0.4,0.8,1.1,0.9,1.9,1
		c0,0-0.1,0-0.1,0c0.8,0.8,1.8,1.1,2.9,1c0,0-0.1,0-0.1,0c0.4,0.8,1.1,1,1.9,1c0,0,0,0,0,0C432.4,409.9,434,410.1,435.4,410.4z"/>
	<path class="st1" d="M0.8,557.3c2.2-0.4,2.2-2.4,2.9-3.9c14.6-31.2,34-59.1,58.6-83.2c26.8-26.2,57.2-47,91.9-61.3
		c0.7-0.3,1.3-0.8,2-1.2c0.6-0.4,1.3-0.8,1.9-1.1c0,0-0.1,0-0.1,0c4.4-0.8,8.5-2.2,12.2-4.7c0,0-0.1,0-0.1,0
		c6.8-1.4,13.4-3.6,19.7-6.6c0,0,0,0,0,0c2.5,0,4.9-0.4,6.9-1.9c0,0,0.4,0,0.4,0c0.8,0,1.6-0.2,2.1-1c0,0-0.1,0-0.1,0
		c2.2,0,4.4,0.1,6.3-1.3c0.5,4.8-1.1,9.5-0.6,14.4c1.1,11.6,2.7,23.1,5.8,34.4c1.9,7,4,14,6.1,21c0.3,1.1,0.7,2.6,2.1,2.8
		c1.7,0.3,1.8-1.5,2.2-2.5c1.5-4.3,4.9-7.2,7.6-10.5c6.8-8.2,15.6-13.5,25.5-17.2c4.8,9,8.7,18.5,14.1,27.3c-0.1,1.7,0,3.4-0.2,5.1
		c-2,14.8-4,29.6-6,44.4c-2.6,18.9-4.4,38-7.7,56.8c-2,11.3-3.7,22.7-5.6,34.1c-81.5,0-163,0-244.4,0.1c-3.2,0-3.9-0.6-3.8-3.8
		C0.9,584.2,0.8,570.8,0.8,557.3z"/>
	<path class="st2" d="M248.9,601.4c1.9-11.4,3.6-22.7,5.6-34.1c3.3-18.9,5.1-37.9,7.7-56.8c2-14.8,4-29.6,6-44.4
		c0.2-1.7,0.2-3.4,0.2-5.1c4.1,0,8.2,0,12.3,0c3.1,2.3,6.2,2.1,9.3,0c9,0,18-0.1,27-0.1c2,14.3,4,28.7,5.9,43
		c4.2,30.9,7.2,61.9,13.5,92.4c0.3,1.7,0.3,3.4,0.4,5.1C307.6,601.4,278.3,601.4,248.9,601.4z"/>
	<path class="st3" d="M230.5,327.9c-8.5-9.5-15.5-20.1-22-31c-1.4-2.3-2.7-3.5-5.7-3.8c-10.4-1.3-18.3-7-24.7-15
		c-9.1-11.5-15.3-24-14.3-39.2c0.6-9.6,5.9-15.6,14.9-16.6c0.8,1.5,1.6,3,2.3,4.5c4.2,8.6,8.2,17.3,15.4,25.1c0-1.6,0.1-2.4,0-3.1
		c-4-21.1,1.9-40,12.4-58c8.6-14.7,14-30.2,13-47.5c-0.1-1-0.9-2.5,0.9-3.3c1,1.4,2.1,2.7,3.1,4.1c9.7,12.8,22.3,20.6,38.3,22.9
		c14.7,2.1,28.5-1.3,42-6.5c4.6-1.8,9-3.9,14.5-6.4c-1.2,2.5-1.9,4-2.6,5.5c-0.5,1.1-1.6,2.3-0.7,3.4c0.7,0.9,2,0.3,3.1,0.1
		c4.6-0.6,9.3-1.3,13.9-1.7c29.3-2.6,48,11,54.2,39.5c3.2,14.8,2.3,29.8,0.2,44.6c-0.9,6.6-2.5,13.1-3.8,20.2
		c3.4-2.7,5.1-6.1,7.2-9.1c7.2-10.5,12.2-22,17.1-33.6c6,2.1,10.2,5.8,11.2,12.4c1.5,4.9,0.9,9.8,0.3,14.8
		c-3.9,16.3-12.5,29.4-26.6,38.9c-3.2,2.2-7,3.7-10.3,3.7c-5.3-0.1-6.9,3.5-8.7,6.7c-5.8,10.3-12.9,19.6-20.6,28.5
		c-15.2,16.7-32.3,29.9-56,32c-16.4,1.5-31.1-2.6-44.6-11.6C245.3,342.5,237.7,335.4,230.5,327.9z"/>
	<path class="st4" d="M409.2,223c-5,11.6-10,23.2-17.1,33.6c-2.1,3-3.8,6.3-7.2,9.1c1.4-7.1,2.9-13.6,3.8-20.2
		c2.1-14.9,3.1-29.8-0.2-44.6c-6.2-28.5-24.8-42.1-54.2-39.5c-4.7,0.4-9.3,1.1-13.9,1.7c-1.1,0.1-2.4,0.8-3.1-0.1
		c-0.9-1.1,0.1-2.3,0.7-3.4c0.7-1.5,1.4-3,2.6-5.5c-5.6,2.5-10,4.6-14.5,6.4c-13.5,5.2-27.3,8.6-42,6.5
		c-15.9-2.3-28.6-10.1-38.3-22.9c-1-1.4-2-2.7-3.1-4.1c-1.8,0.8-0.9,2.2-0.9,3.3c1.1,17.3-4.3,32.9-13,47.5
		c-10.6,18-16.5,36.9-12.4,58c0.1,0.7,0,1.5,0,3.1c-7.1-7.8-11.2-16.5-15.4-25.1c-0.7-1.5-1.6-3-2.3-4.5c1.6-1.6,0.3-3.3-0.2-4.7
		c-5.8-16.1-7.1-32.6-4.7-49.4c0.1-0.8,0.2-1.6,0.1-2.3c-0.1-1.1,0.7-2.7-0.7-3.3c-1.5-0.7-2.1,0.9-2.9,1.7
		c-1.8,1.6-2.6,4.2-5.5,5.4c-1.2-11.9,0.4-22.8,5.2-33.4c6-13,15.9-22,28.8-28c4.9-2.2,5-3.2,1.3-7.3c-3.6-4-7.9-6.8-13-8.7
		c6.1-0.2,11.7,1.2,16.4,5.2c1,0.9,1.9,2.6,3.4,1.6c1.4-0.9,0.5-2.6,0.3-3.9c-0.9-6.1-1.8-12.2,0.6-19.4c0.8,5,0.6,9,2.1,12.7
		c0.4,1,0.7,2.2,2,2.3c1.3,0,1.6-1.1,2.1-2.1c8.9-18.8,24.9-28.8,44.1-34.2c11.9-3.4,24.2-4.1,36.5-3.8c4.7,0.1,9.2,1.6,14.1,1.4
		c-10.1,2.6-19.9,5.7-28.3,12.8c3.8,1.9,6.9-0.1,9.9-0.9c18.6-4.7,37.1-5.6,55.5,0.7c9.6,3.3,17.8,8.7,24.8,15.9
		c-0.1,0.1-0.3,0.3-0.4,0.4c-3.2-0.1-5.9-2-8.9-2.6c-1.3-0.3-3-1.1-3.6,0.5c-0.6,1.5,1.4,1.9,2.4,2.4c13,6.7,24.6,15.1,34.7,25.7
		c15.1,15.9,24.3,34.4,26.6,56.5c0.8,7.3-0.4,14.2-0.4,21.4c-2.7-1.9-0.9-5.6-3.5-7.6c-1.8,2.1-1.1,4.5-1.2,6.6
		c-1.1,12.7-3.5,25.2-7.2,37.4C409.1,221.7,409.2,222.3,409.2,223z"/>
	<path class="st5" d="M224.6,345c0.9-2.3,1.8-4.5,2.8-6.8c3.1,2.6,6.3,5.1,9.2,7.8c13.1,12.3,28.3,20.5,46.2,23.3
		c20,3.1,37.7-3.3,54.2-13.9c7.6-4.9,13.8-11.5,20.7-17.3c3.8,7.4,3.6,15.6,4.8,23.6c-1,9.7-5.2,17.8-11.4,25.1
		c-9.7,11.4-21.6,19.6-34.9,26.2c-7.2,3.6-14.6,6.9-21.9,10.4c-0.5,0.4-1,0.6-1.6,0.2c-17.5-7.3-34.9-14.8-49.4-27.5
		c-10.6-9.2-18.9-19.7-20.7-34.3c0-0.4,0.1-0.7,0.1-1.1C223.8,355.5,224.8,350.3,224.6,345z"/>
	<path class="st6" d="M294.3,423.4c7.3-3.4,14.7-6.8,21.9-10.4c13.2-6.6,25.2-14.9,34.9-26.2c6.2-7.3,10.5-15.4,11.4-25.1
		c5.3,2.3,8.3,6.8,11.7,11.1c0.4,0.6,0.7,1.3,1.1,1.9c0,0-0.1-0.1-0.1-0.1c0.6,2.4,1.4,4.6,2.9,6.6c0,0,0-0.1,0-0.1
		c0.2,3.9,0.7,7.8,2.9,11.2c-0.3,7.7,0.3,15.5-0.8,23.2c-2.2,15.9-5.4,31.5-11.8,46.3c-0.4,0.8-0.4,1.8-0.6,2.7l0,0
		c-1.9-0.4-2.1-2.2-2.9-3.5c-8.1-13.3-20.1-21.9-33.9-28.2C319.3,428,307,425.1,294.3,423.4z"/>
	<path class="st6" d="M222.6,361.9c1.8,14.5,10.1,25.1,20.7,34.3c14.5,12.6,32,20.1,49.4,27.5c-2.6,0.3-5.3,0.5-7.8,0.9
		c-10.5,2-21.1,3.8-30.6,9.2c-9.9,3.7-18.8,9-25.5,17.2c-2.7,3.3-6.1,6.2-7.6,10.5c-0.4,1.1-0.5,2.8-2.2,2.5
		c-1.4-0.2-1.8-1.7-2.1-2.8c-2.1-7-4.2-14-6.1-21c-3-11.3-4.6-22.8-5.8-34.4c-0.5-4.9,1.1-9.6,0.6-14.4c0.4-4,2.3-7.8,2.2-11.9
		c0,0,0,0.1,0,0.1c0.9-0.4,1-1.1,1-2c0,0,0,0.1,0,0.1c0.8-0.8,1.2-1.7,1-2.9c0,0,0,0,0,0c0.7,0,0.9-0.5,1-1.1c0,0-0.1-0.3-0.1-0.3
		c0.3-0.5,0.7-1,1-1.5c0,0,0,0.1,0,0.1c0.8-0.4,1.1-1.1,1-1.9c0,0-0.1,0-0.1,0c0.4-0.3,0.9-0.6,1.3-1
		C216.5,366.5,218.8,363.2,222.6,361.9z"/>
	<path class="st5" d="M357.7,338.2c-6.9,5.8-13.1,12.4-20.7,17.3c-16.5,10.6-34.1,17-54.2,13.9c-17.9-2.8-33.1-11-46.2-23.3
		c-2.9-2.8-6.1-5.2-9.2-7.8c0-3.7,1.9-6.9,3.1-10.3c7.2,7.5,14.8,14.6,23.5,20.5c13.5,9.1,28.1,13.1,44.6,11.6
		c23.7-2.1,40.8-15.3,56-32C355.6,331.4,356.7,334.8,357.7,338.2z"/>
	<path class="st1" d="M422.2,404.8c-9.2-2.7-18.4-5.5-27.2-9.4C404.7,396.6,413.7,400.1,422.2,404.8z"/>
	<path class="st1" d="M190,395.4c-6.3,3-12.9,5.2-19.7,6.6C176.4,398.5,182.9,396.1,190,395.4z"/>
	<path class="st1" d="M207.8,379.4c0,4.1-1.9,7.8-2.2,11.9c-1.9,1.5-4.1,1.3-6.3,1.3c4.3-1,6.2-3.9,6.5-8.1
		C206,382.6,206.5,380.8,207.8,379.4z"/>
	<path class="st5" d="M224.6,345c0.2,5.4-0.8,10.6-1.9,15.8C222.8,355.4,222.1,350,224.6,345z"/>
	<path class="st1" d="M170.3,401.9c-3.7,2.5-7.9,3.9-12.2,4.7C161.7,403.9,165.7,402.2,170.3,401.9z"/>
	<path class="st6" d="M381,392.4c-2.3-3.4-2.7-7.3-2.9-11.2c0.6,1.2,1.6,2.5,1.7,3.7c0.1,3.7,2.3,5.8,5.1,7.6
		C383.6,392.5,382.3,392.5,381,392.4z"/>
	<path class="st1" d="M448.4,416c-4-0.3-7.3-2.3-10.3-4.7C442.1,411.6,445.3,413.7,448.4,416z"/>
	<path class="st3" d="M420.8,250.1c0.5-4.9,1.1-9.9-0.3-14.8C422.8,238.2,423,246.2,420.8,250.1z"/>
	<path class="st1" d="M395,395.4c-3.5-0.2-6.9-0.7-9.8-2.8C388.6,393.1,392.3,392.8,395,395.4z"/>
	<path class="st1" d="M196.9,393.5c-2.1,1.5-4.5,1.9-6.9,1.9C191.7,392.6,194.4,393.6,196.9,393.5z"/>
	<path class="st6" d="M378.1,381.3c-1.4-2-2.3-4.2-2.9-6.6C377.8,376.2,378.2,378.7,378.1,381.3z"/>
	<path class="st1" d="M453.1,418.8c-1.9-0.4-3.9-0.8-4.8-2.9C450.3,416.2,452.1,416.9,453.1,418.8z"/>
	<path class="st1" d="M435.4,410.4c-1.5-0.3-3-0.5-3.9-1.9C433.2,408.4,434.6,408.9,435.4,410.4z"/>
	<path class="st1" d="M425,405.7c-1.1,0.2-2.1,0-2.9-1C423.2,404.7,424.2,404.8,425,405.7z"/>
	<path class="st1" d="M429.7,407.6c-1.1,0.1-2.1-0.2-2.9-1C427.9,406.6,428.9,406.7,429.7,407.6z"/>
	<path class="st1" d="M209.7,374.7c0.2,1.1-0.1,2.1-1,2.9C208.7,376.5,208.8,375.5,209.7,374.7z"/>
	<path class="st1" d="M212.5,370c0.1,0.9-0.2,1.5-1,1.9C211.8,371.3,212.2,370.7,212.5,370z"/>
	<path class="st1" d="M208.8,377.5c0.1,0.9-0.1,1.6-1,2C208.1,378.8,208.4,378.2,208.8,377.5z"/>
	<path class="st1" d="M199.4,392.5c-0.5,0.8-1.2,1-2.1,1C198,393.2,198.7,392.9,199.4,392.5z"/>
	<path class="st1" d="M426.9,406.6c-0.8,0-1.5-0.2-1.9-1C425.6,406,426.2,406.3,426.9,406.6z"/>
	<path class="st7" d="M158.2,406.6c-0.6,0.4-1.3,0.8-1.9,1.1C156.9,407.3,157.5,407,158.2,406.6z"/>
	<path class="st1" d="M431.6,408.5c-0.8,0.1-1.5-0.1-1.9-1C430.3,407.9,430.9,408.2,431.6,408.5z"/>
	<path class="st1" d="M438.1,411.3c-1,0.1-1.7-0.3-2.4-0.9C436.5,410.7,437.3,411,438.1,411.3z"/>
	<path class="st7" d="M375.3,374.8c-0.4-0.6-0.7-1.3-1.1-1.9C374.6,373.5,375,374.1,375.3,374.8z"/>
	<path class="st4" d="M370.9,80.5c0.2,0.2,0.6,0.5,0.6,0.6c-0.4,0.6-0.7,0.2-1-0.2C370.6,80.7,370.7,80.6,370.9,80.5z"/>
	<path class="st7" d="M213.7,369.1c-0.4,0.3-0.9,0.6-1.3,1C212.9,369.8,213.3,369.4,213.7,369.1z"/>
	<path class="st1" d="M210.6,373.7c-0.1,0.6-0.3,1.1-1,1.1C210,374.4,210.3,374,210.6,373.7z"/>
	<path class="st7" d="M211.5,371.9c-0.3,0.5-0.7,1-1,1.5C210.9,372.9,211.2,372.4,211.5,371.9z"/>
	<path class="st8" d="M254.4,433.7c9.5-5.4,20.1-7.2,30.6-9.2c2.6-0.5,5.2-0.6,7.8-0.9c0.6,0.5,1.1,0.3,1.6-0.1
		c12.6,1.7,25,4.5,36.7,9.5c-4.7,9.3-9.3,18.6-14,27.9c-9,0-18,0.1-27,0.1c-3.1,0-6.2,0-9.3,0c-4.1,0-8.2,0-12.3,0
		C263.1,452.2,259.2,442.7,254.4,433.7z"/>
	<polygon class="st6" points="367.9,464.6 368,464.8 367.9,464.6 	"/>
	<path class="st9" d="M280.8,460.9c3.1,0,6.2,0,9.3,0C287,463,283.9,463.3,280.8,460.9z"/>
</g>
</svg>
