<?xml version="1.0" encoding="utf-8"?>
<!-- Generator: Adobe Illustrator 24.3.0, SVG Export Plug-In . SVG Version: 6.00 Build 0)  -->
<svg version="1.1" id="Capa_1" xmlns="http://www.w3.org/2000/svg" xmlns:xlink="http://www.w3.org/1999/xlink" x="0px" y="0px"
	 viewBox="0 0 425.2 255.1" style="enable-background:new 0 0 425.2 255.1;" xml:space="preserve">
<style type="text/css">
	.st0{fill:#FD0201;}
	.st1{fill:#FD6902;}
	.st2{fill:#3B3B3B;}
	.st3{fill:#FDB904;}
	.st4{fill:#60C90C;}
	.st5{fill:#00CDFC;}
</style>
<g>
	<path class="st0" d="M334.5,159.2c-2.9-8.1-6.3-16-10.5-23.5c-0.8-1.4-0.5-2,0.7-2.8c16.1-11.7,32.3-23.4,48.3-35.2
		c1.4-1.1,2.1-0.6,3,0.6c12.8,18.7,22.5,38.8,28.6,60.6c4.7,16.7,7,33.7,7.4,51c0,1.8-0.2,2.5-2.3,2.4c-21.4-0.1-42.8-0.1-64.2,0
		c-1.5,0-2-0.3-2-1.9c-0.2-13.3-1.9-26.4-5.3-39.3c1.8-1.3,4-1.6,6-2.5c3.5-1.5,4.8-4.5,3.4-8c-1-2.5-4.8-3.9-7.8-2.9
		C338,158.3,336.2,158.7,334.5,159.2z"/>
	<path class="st1" d="M372.9,94.3c-0.6,0.5-1.2,1-1.8,1.4c-11.8,8.5-23.5,17.1-35.3,25.6c-4.2,3-8.4,6-12.5,9.1
		c-1.3,1-1.9,0.7-2.7-0.6C306,105.5,286.3,86.1,261.6,72c-1.1-0.6-1.5-1.3-1-2.6C265.3,55,270,40.5,274.6,26c0.6-2,1.3-2.4,3.3-1.7
		c25,8.8,47.5,21.9,67.3,39.5c9.6,8.6,18.3,18,26.2,28.2C371.9,92.8,372.3,93.5,372.9,94.3z"/>
	<path class="st2" d="M334.5,159.2c1.8-0.5,3.6-0.9,5.3-1.5c3-1,6.8,0.3,7.8,2.9c1.4,3.5,0.1,6.5-3.4,8c-2,0.9-4.2,1.2-6,2.5
		c-3.9,0.5-7.3,2.4-10.9,3.7c-13.1,4.8-26.1,9.9-39.2,14.7c-7.3,2.7-14.5,5.6-21.7,8.3c-20.7,7.9-41.5,15.7-62.2,23.5
		c-1.3,0.5-1.9,1.1-2.4,2.5c-3.7,11.6-13.7,18.3-24.9,18c-12.3-0.3-21.9-8.1-24.6-20.1c-3.2-14.4,6.5-29.3,22.4-30.8
		c5.7-0.5,11.4,0.3,16.3,3.7c1,0.7,1.9,0.6,2.9,0.4c46.5-11.8,93-23.6,139.5-35.4C333.7,159.7,334.1,159.4,334.5,159.2z"/>
	<path class="st3" d="M211.8,13.2c20.5,0.4,40.1,2.9,59.1,9c1.5,0.5,1.7,0.9,1.3,2.2c-3.5,10.6-6.9,21.1-10.3,31.7
		c-1.2,3.8-2.6,7.7-3.7,11.5c-0.5,1.8-1.2,1.8-2.6,1.1c-7.9-4-16-7.5-24.5-10.2c-9-2.9-18.2-5-27.5-6.3c-8.7-1.2-17.5-1.8-26.2-1.5
		c-4.5,0.2-9.1,0.6-13.6,1c-1.6,0.2-2.3-0.5-2.7-1.9c-2.7-8.4-5.4-16.8-8.1-25.2c-0.5-1.4-0.6-2,1.3-2.6c11.6-3.7,23.5-6,35.5-7.4
		C197.3,13.8,204.9,13.5,211.8,13.2z"/>
	<path class="st4" d="M158.7,51.5c0.1,1.2-0.8,1.2-1.5,1.3c-7.6,1.1-15,2.8-22.4,5c-10,3-19.7,7-28.9,11.8
		c-15.5,8.2-29.2,18.7-41.3,31.3c-1.2,1.3-2,1.2-3.3,0.3c-2.5-2-5.1-3.9-7.8-5.6c-1.3-0.9-1.3-1.6-0.4-2.7
		c7.7-10,16.1-19.3,25.4-27.8c12.6-11.3,26.3-21,41.4-28.9c9-4.7,18.4-8.8,28-12.1c1.3-0.5,1.8-0.2,2.2,1c2.8,8.6,5.6,17.1,8.4,25.7
		C158.6,51,158.7,51.3,158.7,51.5z"/>
	<path class="st2" d="M205,113.7c-0.7,2.9-1.2,5.2-1.8,7.5c-1.9,6.7-3.6,13.5-5.5,20.3c-1.7,5.9-3.5,11.8-4.9,17.8
		c-0.3,1.3-0.9,2.2-2.5,1.9c-1.2-0.2-2.5,0-3.8,0c-3.9,0-3.9,0-4.8-3.8c-3.4-13.4-6.8-26.8-9.7-40.3c-0.2-0.9-0.5-1.7-1-2.5
		c-0.8,1.3-0.4,2.7-0.3,4c0.8,13.7,0.3,27.4,0.5,41.1c0,1.2-0.4,1.6-1.6,1.5c-2.2-0.1-4.4-0.1-6.6,0c-1.5,0.1-1.7-0.5-1.7-1.9
		c0.1-16.9,0.1-33.8,0-50.8c0-1.3,0.3-1.7,1.7-1.7c4.3,0.1,8.6,0.1,12.9,0c1.5,0,1.9,0.5,2.3,1.9c3.8,12.3,6.9,24.8,9.9,38.1
		c1.1-4,2.1-7.5,3-11c2.5-9.3,5.5-18.4,8.4-27.6c0.3-1.1,0.8-1.4,2-1.4c4.2,0.1,8.5,0.1,12.7,0c1.2,0,1.6,0.2,1.6,1.5
		c0,17.1,0,34.2,0,51.3c0,1.2-0.2,1.6-1.5,1.5c-2.4-0.1-4.7-0.1-7.1,0c-1.5,0.1-1.8-0.5-1.8-1.8c0.1-14.9,0.2-29.8,0.3-44.6
		C205.5,114.6,205.5,114.5,205,113.7z"/>
	<path class="st2" d="M143.2,131.5c4.1,1.9,7,4.7,7.9,8.8c2.2,10.1-1.9,17.5-12,20.2c-1.9,0.5-3.8,0.6-5.8,0.6
		c-6.8,0.1-13.5,0-20.3,0.1c-1.3,0-1.7-0.3-1.7-1.7c0.1-17,0.2-34,0.2-51c0-1.4,0.6-1.7,1.8-1.6c7.5,0.1,15.1-0.1,22.6,0.2
		c9.7,0.4,15.8,8,13.3,17.5C148.5,127.8,146.6,129.9,143.2,131.5z M122.3,144.9c0,2.2,0,4.4,0,6.6c0,1.1,0.2,1.7,1.5,1.7
		c2.8-0.1,5.6,0.1,8.4-0.1c5.3-0.4,8.3-3.1,8.7-7.7c0.4-4.2-2.1-7.6-6.4-8.7c-1.2-0.3-2.5-0.3-3.8-0.3c-2.7,0-6.2-0.9-7.8,0.4
		c-1.7,1.4-0.4,5.1-0.5,7.8C122.3,144.7,122.3,144.8,122.3,144.9z M122.3,121.2c0,2.2,0,3.9,0,5.7c0,0.8,0.1,1.5,1.2,1.5
		c3.6-0.2,7.3,0.4,10.8-0.4c3.6-0.8,5.2-2.8,5.2-6.3c0-3.4-2-5.7-5.3-6.3c-1.7-0.4-3.5-0.5-5.3-0.4c-2.1,0.1-4.8-0.9-6.1,0.4
		C121.3,116.6,122.5,119.4,122.3,121.2z"/>
	<path class="st5" d="M16.9,212.1c-3.9,0-3.9,0-3.5-3.5c0.5-4.5,0.3-9.1,0.7-13.6c0.9-8.5,2.2-17,4-25.4c1.9-9.1,4.6-18.1,7.9-26.8
		c4.1-11.1,9.2-21.8,15.4-32c2.6-4.3,5.5-8.5,8.2-12.7c0.5-0.8,0.9-1.2,1.9-0.5c2.7,2,5.4,4.1,8.1,5.9c1.3,0.9,1,1.3,0.1,2.3
		c-9.3,10.6-17.2,22-23.4,34.6c-6.8,14-11.7,28.6-14.4,43.9c-1.4,8.2-2.2,16.5-2.4,24.9C19.5,211.6,19,212.7,16.9,212.1z"/>
	<path class="st2" d="M228.3,134c0-8.4,0.1-16.7,0-25.1c0-1.7,0.5-2.2,2.1-2.1c2.8,0.2,6.7-1.2,8.2,0.6c1.4,1.5,0.4,5.3,0.4,8.1
		c0,14.4,0,28.9,0.1,43.3c0,1.9-0.4,2.5-2.3,2.3c-2.3-0.2-4.6-0.1-6.8,0c-1.5,0.1-1.8-0.5-1.7-1.8
		C228.2,150.9,228.2,142.4,228.3,134C228.2,134,228.3,134,228.3,134z"/>
</g>
</svg>
